<?xml version="1.0" standalone="no"?>
<!DOCTYPE svg PUBLIC "-//W3C//DTD SVG 20010904//EN"
 "http://www.w3.org/TR/2001/REC-SVG-20010904/DTD/svg10.dtd">
<svg version="1.0" xmlns="http://www.w3.org/2000/svg"
 width="300.000000pt" height="270.000000pt" viewBox="0 0 300.000000 270.000000"
 preserveAspectRatio="xMidYMid meet">
<metadata>
Created by potrace 1.10, written by Peter Selinger 2001-2011
</metadata>
<g transform="translate(0.000000,270.000000) scale(0.100000,-0.100000)"
fill="#000000" stroke="none">
<path d="M278 1402 l2 -1007 127 2 126 2 59 58 58 57 0 761 0 760 -187 188
-188 187 3 -1008z m208 766 l140 -143 -2 -745 c-1 -410 -2 -749 -3 -753 -2
-12 -61 -67 -72 -67 -6 0 -8 -3 -6 -7 13 -22 -27 -31 -130 -32 l-109 0 2 947
c0 521 2 951 3 955 3 16 41 -17 177 -155z"/>
<path d="M1310 2235 l175 -175 172 172 c95 95 173 174 173 175 0 2 -156 3
-347 3 l-348 0 175 -175z m218 141 c2 -3 12 -1 21 4 10 5 23 5 31 0 8 -5 19
-6 25 -2 16 10 34 11 41 1 3 -5 10 -6 17 -2 14 9 98 10 103 1 2 -3 -8 -16 -23
-27 -16 -11 -33 -25 -39 -30 -7 -6 -15 -7 -20 -3 -4 4 -4 1 0 -6 5 -8 -2 -22
-19 -38 -26 -24 -41 -32 -31 -16 3 5 -1 9 -9 9 -12 0 -12 -3 -3 -15 10 -11 9
-17 -5 -27 -9 -6 -13 -15 -9 -19 4 -4 2 -6 -4 -4 -6 2 -28 -15 -48 -37 -21
-22 -43 -39 -48 -37 -5 1 -7 -2 -4 -7 8 -13 -9 -22 -27 -15 -9 3 -13 12 -10
20 3 8 2 14 -3 13 -22 -4 -34 2 -34 17 0 9 -9 18 -20 21 -10 3 -22 14 -25 24
-4 10 -11 19 -16 19 -6 0 -7 -5 -3 -12 4 -7 3 -8 -4 -4 -7 4 -12 11 -12 16 0
12 -53 65 -62 62 -5 -1 -7 1 -5 6 1 4 -8 17 -20 30 -13 12 -23 19 -23 16 0 -3
-9 4 -19 17 -11 13 -18 26 -16 29 4 6 316 2 323 -4z"/>
<path d="M1576 2348 c3 -5 10 -6 15 -3 13 9 11 12 -6 12 -8 0 -12 -4 -9 -9z"/>
<path d="M1676 2348 c3 -5 10 -6 15 -3 13 9 11 12 -6 12 -8 0 -12 -4 -9 -9z"/>
<path d="M1274 2326 c20 -16 37 -13 35 7 0 9 -2 9 -6 0 -3 -10 -10 -10 -26 -2
-21 10 -21 9 -3 -5z"/>
<path d="M1366 2332 c-3 -4 4 -9 15 -9 23 -2 25 3 4 10 -8 4 -16 3 -19 -1z"/>
<path d="M1555 2281 c-3 -12 -11 -19 -16 -16 -11 7 -7 -31 5 -42 4 -5 7 -3 5
2 -1 6 3 23 10 39 6 16 10 31 7 33 -2 3 -7 -5 -11 -16z"/>
<path d="M1320 2270 c0 -6 7 -13 15 -17 24 -9 27 1 5 15 -13 8 -20 8 -20 2z"/>
<path d="M1401 2227 c2 -1 13 -9 24 -17 19 -14 19 -14 6 3 -7 9 -18 17 -24 17
-6 0 -8 -1 -6 -3z"/>
<path d="M2507 2222 l-187 -187 0 -820 0 -820 185 0 185 0 2 1005 c2 553 3
1006 3 1007 -1 1 -85 -82 -188 -185z m163 -841 l0 -969 -165 1 -165 0 0 807 0
806 24 21 c13 12 27 19 31 15 3 -4 3 2 -1 12 -4 11 -3 17 2 14 5 -3 29 19 54
47 25 29 55 58 67 65 12 7 20 16 18 20 -3 5 2 11 11 14 10 4 13 2 8 -7 -4 -6
-4 -9 1 -5 4 4 13 18 20 30 6 13 17 22 23 21 7 -2 12 2 12 9 0 10 48 68 57 68
2 0 3 -436 3 -969z"/>
<path d="M785 1310 c0 -319 2 -580 5 -580 3 0 87 82 188 183 l182 182 0 210 0
210 -187 188 c-103 103 -187 187 -187 187 -1 0 -1 -261 -1 -580z m181 369 c78
-78 148 -145 156 -150 10 -6 13 -54 13 -217 l0 -209 -150 -147 c-82 -81 -156
-152 -162 -158 -10 -8 -13 94 -13 506 0 284 3 516 7 516 3 0 70 -64 149 -141z"/>
<path d="M1122 1205 c0 -16 2 -22 5 -12 2 9 2 23 0 30 -3 6 -5 -1 -5 -18z"/>
<path d="M1997 1632 l-187 -187 0 -525 0 -525 185 2 185 2 3 711 c1 390 2 710
2 710 0 0 -85 -84 -188 -188z m171 27 c2 -69 0 -99 -7 -94 -8 4 -8 -1 -2 -18
5 -13 9 -264 8 -578 l-2 -554 -167 -1 -168 -1 0 513 0 513 61 61 c34 33 65 60
70 60 5 0 9 7 9 16 0 10 6 14 15 10 8 -3 14 0 12 7 -1 7 5 11 13 9 8 -2 11 0
7 4 -7 7 130 154 143 154 3 0 6 -46 8 -101z"/>
<path d="M1295 1335 c0 -63 0 -115 0 -115 0 0 26 26 58 58 l57 58 -57 57 -58
56 0 -114z m65 20 c21 -22 20 -30 -2 -26 -5 0 -8 -5 -8 -13 0 -7 -7 -19 -15
-26 -13 -11 -15 -6 -15 39 0 28 4 51 8 51 5 0 19 -11 32 -25z"/>
<path d="M1488 1203 l-188 -188 0 -311 0 -310 188 0 187 1 3 253 c1 139 1 363
0 498 l-3 244 -187 -187z m169 -325 l-2 -463 -165 0 -165 0 -3 300 -2 299 162
163 c90 90 166 163 170 163 5 0 7 -208 5 -462z"/>
<path d="M917 640 c-130 -129 -237 -237 -237 -240 0 -3 110 -5 245 -5 l245 0
0 243 c0 133 -3 241 -7 240 -5 -1 -115 -108 -246 -238z m229 -14 c-1 -122 -5
-189 -13 -197 -6 -6 -35 -10 -64 -9 -64 2 -61 2 -212 0 -66 -1 -122 1 -125 5
-4 4 -2 6 3 5 6 -1 18 -2 29 -1 14 1 16 4 8 14 -9 10 12 36 92 115 56 56 108
102 114 102 7 0 12 7 12 15 0 8 4 15 9 15 10 0 67 52 65 59 -1 3 2 5 7 4 5 -2
8 3 7 10 -2 6 3 11 10 9 8 -1 11 2 8 7 -3 5 2 15 11 22 14 12 16 12 10 -1 -5
-9 -3 -8 5 2 6 9 15 15 18 13 4 -2 6 -88 6 -189z"/>
<path d="M939 623 c-13 -16 -12 -17 4 -4 9 7 17 15 17 17 0 8 -8 3 -21 -13z"/>
<path d="M835 519 c-39 -38 -63 -67 -55 -63 15 7 137 134 129 134 -3 0 -36
-32 -74 -71z"/>
<path d="M1116 555 c4 -8 8 -15 10 -15 2 0 4 7 4 15 0 8 -4 15 -10 15 -5 0 -7
-7 -4 -15z"/>
</g>
</svg>
