<?xml version="1.0" encoding="UTF-8" standalone="no"?>
<!-- Created with Inkscape (http://www.inkscape.org/) -->

<svg
   version="1.1"
   id="svg2"
   width="564"
   height="521"
   viewBox="0 0 564 521"
   sodipodi:docname="home.png"
   inkscape:version="1.1.2 (1:1.1+202202050950+0a00cf5339)"
   xmlns:inkscape="http://www.inkscape.org/namespaces/inkscape"
   xmlns:sodipodi="http://sodipodi.sourceforge.net/DTD/sodipodi-0.dtd"
   xmlns="http://www.w3.org/2000/svg"
   xmlns:svg="http://www.w3.org/2000/svg">
  <defs
     id="defs6" />
  <sodipodi:namedview
     id="namedview4"
     pagecolor="#505050"
     bordercolor="#ffffff"
     borderopacity="1"
     inkscape:pageshadow="0"
     inkscape:pageopacity="0"
     inkscape:pagecheckerboard="1"
     showgrid="false"
     inkscape:zoom="0.87705101"
     inkscape:cx="229.74718"
     inkscape:cy="293.02743"
     inkscape:window-width="1600"
     inkscape:window-height="840"
     inkscape:window-x="0"
     inkscape:window-y="28"
     inkscape:window-maximized="1"
     inkscape:current-layer="g8" />
  <g
     inkscape:groupmode="layer"
     inkscape:label="Image"
     id="g8">
    <g
       id="g1432"
       transform="matrix(1.153941,0,0,1.278974,-36.953485,-69.638108)"
       style="opacity:1;fill:#008080;fill-opacity:0.950425;fill-rule:nonzero;stroke:none;stroke-opacity:1"
       sodipodi:insensitive="true">
      <path
         style="fill:#008080;fill-opacity:0.950425;fill-rule:nonzero;stroke:none;stroke-width:1.00068;stroke-opacity:1"
         d="m 240.32847,459.94098 c 1.65849,-2.23425 2.50359,3.42438 0,0 z M 34.537531,259 c 0.04683,-41.32299 -0.07928,-82.64797 0.159032,-123.96973 0.296678,82.64582 0.296678,165.29364 0,247.93946 C 34.458249,341.64813 34.584359,300.32284 34.537531,259 Z m 485.663789,0 c 0.0468,-41.32299 -0.0793,-82.64797 0.15903,-123.96973 0.29668,82.64582 0.29668,165.29364 0,247.93946 -0.23832,-41.3216 -0.1122,-82.64689 -0.15903,-123.96973 z m -265.353,62 c 6.84642,-7.19445 21.65116,-20.82341 6.39482,-5.43594 -5.76893,6.21911 -29.70014,29.19467 -11.78827,10.87188 l 2.59291,-2.62364 z M 172.22467,196.25 c -5.83774,-5.91667 -11.67548,-11.83333 -17.51322,-17.75 11.85722,11.73825 23.88592,23.30741 35.54859,35.23928 C 183.65547,208.58754 178.27406,202.021 172.22467,196.25 Z M 398.04403,195 c 6.28729,-6.52134 28.63903,-28.10482 11.52304,-10.604 -6.3964,6.41311 -30.60013,31.04276 -27.05061,26.34765 C 387.63539,205.44003 392.83468,200.2146 398.04403,195 Z M 139.11445,163.25 c -7.50167,-8.19179 9.16835,8.45179 0,0 z m 120.72967,-53.5 C 254.17338,104 248.50263,98.25 242.83189,92.5 c 11.51595,11.32618 23.03189,22.65236 34.54783,33.97855 12.18312,-11.99285 24.36623,-23.9857 36.54935,-35.97855 -12.16434,12.18444 -24.00861,24.7032 -36.55057,36.5 -6.08962,-5.48924 -11.7183,-11.4761 -17.53438,-17.25 z m 72.61027,-38.127555 c 3.24238,-4.632229 3.52637,-0.782616 0,0 z M 242.58155,57.250429 c 21.74263,-0.07465 58.41965,-0.357429 71.02874,0.213036 -25.05349,0.08727 -50.10756,0.100019 -75.16095,-0.01787 z"
         id="path1444" />
      <path
         style="fill:#008080;fill-opacity:0.950425;fill-rule:nonzero;stroke:none;stroke-width:1.00068;stroke-opacity:1"
         d="m 241.50104,459.5 c -1.09808,-41.15039 -0.50814,-82.33542 -0.67996,-123.50177 24.87002,-24.82942 49.74004,-49.65883 74.61007,-74.48823 0,66.33 0,132.66 0,198.99 -24.6296,-0.30801 -49.37596,0.81183 -73.93011,-1 z m 101.63462,0.83333 c -1.1443,-69.93961 -0.49585,-139.90318 -0.66759,-209.8536 12.5171,-12.32658 25.03421,-24.65316 37.55133,-36.97973 -12.18332,12.33991 -24.36664,24.67983 -36.54996,37.01975 0,69.81864 0,139.63727 0,209.45591 24.86732,0.18314 49.73465,0.36628 74.60197,0.54943 -24.97572,-0.008 -49.97812,0.79075 -74.93575,-0.19176 z M 445.09656,296 c 0.0452,-33.73506 -0.0771,-67.47251 0.1603,-101.20605 0.29527,67.46989 0.29527,134.94221 0,202.4121 C 445.01946,363.47278 445.14179,329.73477 445.09656,296 Z M 487.66653,89.622445 c 3.24238,-4.632229 3.52637,-0.782616 0,0 z m 6.00821,-6 c 3.24238,-4.632229 3.52637,-0.782616 0,0 z m 6.00821,-6 c 3.24238,-4.632229 3.52637,-0.782616 0,0 z M 511.19869,66 c 15.79112,-15.829049 0.0422,1.991128 -7.46328,8 2.24293,-2.886895 4.94487,-5.365216 7.46328,-8 z"
         id="path1442" />
      <path
         style="fill:#008080;fill-opacity:0.950425;fill-rule:nonzero;stroke:none;stroke-width:1.00068;stroke-opacity:1"
         d="m 96.879191,448.98879 c 4.995749,-6.3124 14.723479,-10.68776 12.276229,-20.04697 0.16697,-99.14728 0.33394,-198.29455 0.50091,-297.44182 0.16474,101.67667 0.32948,203.35334 0.49422,305.03001 -8.51163,8.32333 -17.023264,16.64666 -25.5349,24.96999 4.087847,-4.1704 8.175694,-8.34081 12.263541,-12.51121 z m 42.561389,11.26203 c 17.50071,-0.0542 35.02173,-0.39514 52.51084,0.20181 -15.89387,0.0492 -46.6499,0.30684 -52.51084,-0.20181 z m 324.44344,5.6e-4 c 8.60631,-0.0315 35.43565,-0.42365 36.51536,0.24486 -10.99876,0.0107 -32.89251,0.24787 -36.51536,-0.24486 z M 343.46944,355.24493 c 0,-34.91836 0,-69.83671 0,-104.75507 24.70043,-24.65991 49.40085,-49.31981 74.10128,-73.97972 0,94.49662 0,188.99324 0,283.48986 -24.70043,0 -49.40085,0 -74.10128,0 0,-34.91836 0,-69.83671 0,-104.75507 z M 200.27373,375.5 c 6.2492,-6.55965 18.9841,-18.25566 5.81035,-4.85352 -5.36232,5.75652 -26.094,25.70259 -10.61933,9.70704 l 2.31081,-2.34253 z M 211.74745,278 c -0.13331,-10.11634 0.19343,-34.9192 0.38138,-11.32227 0.21995,9.39237 -0.20824,49.36173 -0.36823,22.96489 -0.01,-3.88086 -0.0131,-7.76174 -0.0132,-11.64262 z m 27.57965,-5.73369 c 0,-7.5779 0,-15.15579 0,-22.73369 7.67738,7.64514 15.35476,15.29028 23.03214,22.93542 -7.44367,6.54405 -17.15862,19.39966 -22.86901,20.73813 -0.15024,-6.97884 -0.15393,-13.95975 -0.16313,-20.93986 z M 204.25027,228.25 c -12.22704,-12.41865 0.6465,-0.0305 6.14999,5.48955 2.78449,4.61011 -6.06373,-5.91783 -6.14999,-5.48955 z M 466.1371,111 c 6.76305,-6.98751 31.68739,-31.147874 12.64183,-11.720215 -9.3345,9.306815 -27.01867,27.506295 -31.68852,31.063185 C 453.34416,123.80269 459.74693,117.40645 466.1371,111 Z M 43.538658,66.75 c -6.914937,-7.06609 -11.785811,-12.090912 -1.777104,-2.256479 4.864853,4.208851 16.837267,17.345254 5.289713,5.848081 z m 174.631972,1.5 c -3.09336,-4.501956 5.58886,5.323055 0,0 z m -4.00548,-4 c -3.35111,-4.775133 6.09486,5.893877 0,0 z m -4.47356,-4.5 c -6.08098,-6.851308 7.74526,7.005461 0,0 z"
         id="path1440" />
      <path
         style="fill:#008080;fill-opacity:0.950425;fill-rule:nonzero;stroke:none;stroke-width:1.00068;stroke-opacity:1"
         d="m 139.71486,435.91752 c 24.2695,-24.31198 48.90927,-48.24916 73.57666,-72.15597 0,32.0641 0,64.12821 0,96.19231 -32.52853,0.005 -65.05705,0.009 -97.58558,0.014 8.00296,-8.01678 16.00602,-16.03353 24.00892,-24.05034 z M 445.60904,296.24493 c 0,-54.58502 0,-109.17005 0,-163.75507 24.70043,-24.65991 49.40085,-49.319815 74.10128,-73.979724 0,133.829954 0,267.659914 0,401.489864 -24.70043,0 -49.40085,0 -74.10128,0 0,-54.58502 0,-109.17005 0,-163.75507 z M 143.6964,387 c 15.63117,-14.80623 -13.66303,15.01994 0,0 z M 242.83189,92 C 231.48673,80.666667 220.14157,69.333333 208.79641,58 c 45.7218,0 91.44361,0 137.16541,0 -22.84128,22.685807 -45.37159,45.69224 -68.58271,68 -11.74545,-11.09395 -23.06805,-22.6323 -34.54722,-34 z"
         id="path1438" />
      <path
         style="fill:#008080;fill-opacity:0.950425;fill-rule:nonzero;stroke:none;stroke-width:1.00068;stroke-opacity:1"
         d="m 38.86562,460.31689 c 5.778858,-0.63086 -1.899708,1.76176 0,0 z m 4.005475,0 c 5.778858,-0.63086 -1.89971,1.76176 0,0 z m 4.005474,0 c 5.778858,-0.63086 -1.899708,1.76176 0,0 z m 4.005475,0 c 5.778858,-0.63086 -1.89971,1.76176 0,0 z m 4.005474,0 c 5.77886,-0.63086 -1.899708,1.76176 0,0 z m 4.005475,0 c 5.778858,-0.63086 -1.89971,1.76176 0,0 z m 4.005474,0 c 5.778859,-0.63086 -1.899707,1.76176 0,0 z m 4.005475,0 c 5.778858,-0.63086 -1.89971,1.76176 0,0 z m 4.005474,0 c 5.778859,-0.63086 -1.899707,1.76176 0,0 z m 4.005475,0 c 5.778858,-0.63086 -1.89971,1.76176 0,0 z m 4.005475,0 c 5.778858,-0.63086 -1.89971,1.76176 0,0 z m 4.005474,0 c 5.778858,-0.63086 -1.899708,1.76176 0,0 z M 137.1875,277.47376 c 0,-38.65454 0,-77.30908 0,-115.96362 24.70043,24.65991 49.40085,49.31981 74.10128,73.97972 0,28.37943 0,56.75885 0,85.13828 -24.68606,24.28418 -49.19377,48.75165 -74.10128,72.80925 0,-38.65454 0,-77.30909 0,-115.96363 z M 99.115718,122.25 c -6.760642,-6.90771 -12.582745,-12.87816 -2.284699,-2.75049 5.742971,5.15049 18.238051,18.61779 5.247331,5.78754 z"
         id="path1436" />
      <path
         style="fill:#008080;fill-opacity:0.950425;fill-rule:nonzero;stroke:none;stroke-width:1.00068;stroke-opacity:1"
         d="m 35.047902,259.25507 c 0,-66.91498 0,-133.82996 0,-200.744934 24.700425,24.659909 49.400851,49.319814 74.101278,73.979724 0,101.3267 0,202.6534 0,303.9801 -7.83362,7.84335 -15.667236,15.68669 -23.500855,23.53004 -16.866808,0 -33.733615,0 -50.600423,0 0,-66.91498 0,-133.82995 0,-200.74493 z"
         id="path1434" />
    </g>
  </g>
</svg>
